<svg height="512pt" viewBox="0 0 512 512" width="512pt" fill="#e74c3c" xmlns="http://www.w3.org/2000/svg"><path d="m437.542969 75.503906c-47.96875-48.242187-111.839844-75.054687-179.84375-75.4921872-.566407-.0117188-1.128907-.0117188-1.699219-.0117188-68.378906 0-132.664062 26.628906-181.015625 74.980469-48.355469 48.351562-74.984375 112.636719-74.984375 181.019531s26.628906 132.667969 74.984375 181.019531c48.351563 48.351563 112.636719 74.980469 181.015625 74.980469.5625 0 1.117188 0 1.683594-.011719 68.011718-.433593 131.882812-27.242187 179.859375-75.492187 48.015625-48.292969 74.457031-112.390625 74.457031-180.496094 0-68.101562-26.441406-132.203125-74.457031-180.496094zm-21.273438 339.839844c-42.371093 42.613281-98.789062 66.285156-158.859375 66.644531-.0625.003907-.132812.003907-.199218.003907-.40625.007812-.804688.007812-1.210938.007812-60.363281 0-117.117188-23.507812-159.804688-66.191406-42.6875-42.6875-66.195312-99.441406-66.195312-159.808594s23.507812-117.121094 66.195312-159.808594c42.6875-42.683594 99.441407-66.191406 159.804688-66.191406h.246094c.3125 0 .621094 0 .9375.007812.074218 0 .152344.003907.226562.003907 60.070313.359375 116.488282 24.03125 158.859375 66.644531 42.386719 42.632812 65.730469 99.222656 65.730469 159.34375s-23.34375 116.710938-65.730469 159.34375zm0 0"/><path d="m257.265625 107.796875c-23.289063 0-42.660156 19.359375-42.660156 42.660156v114.4375s-.03125 40.660157 42.660156 40.660157c32.179687 0 42.652344-25.460938 42.652344-40.660157v-114.4375c0-23.519531-19.132813-42.660156-42.652344-42.660156zm12.652344 157.097656c0 6.992188-5.671875 12.660157-12.660157 12.660157-6.992187 0-12.652343-5.390626-12.652343-12.378907v-114.71875c0-6.792969 5.902343-12.480469 12.660156-12.660156 6.972656 0 12.652344 5.679687 12.652344 12.660156zm0 0"/><path d="m257.261719 321.261719c-22.265625 0-40.378907 18.113281-40.378907 40.378906 0 22.261719 18.113282 40.375 40.378907 40.375 22.261719 0 40.375-18.113281 40.375-40.375 0-22.265625-18.113281-40.378906-40.375-40.378906zm0 50.753906c-5.722657 0-10.378907-4.65625-10.378907-10.375 0-5.722656 4.65625-10.378906 10.378907-10.378906 5.722656 0 10.375 4.65625 10.375 10.378906 0 5.71875-4.65625 10.375-10.375 10.375zm0 0"/></svg>