<svg id="Capa_1" enable-background="new 0 0 512 512" height="512" viewBox="0 0 512 512" width="512" xmlns="http://www.w3.org/2000/svg"><g><path d="m497 129.264h-175.429v-84.17c0-8.284-6.716-15-15-15h-93.52c-8.284 0-15 6.716-15 15v84.17h-183.051c-8.284 0-15 6.716-15 15v322.643c0 8.284 6.716 15 15 15h482c8.284 0 15-6.716 15-15v-322.643c0-8.285-6.716-15-15-15zm-268.948-69.17h63.52v89.93h-63.52zm253.948 391.812h-452v-292.642h168.052v5.76c0 8.284 6.716 15 15 15h93.52c8.284 0 15-6.716 15-15v-5.76h160.428z"/><path d="m311.958 262.543c0 13.315 4.186 25.663 11.293 35.826-10.845 12.413-16.782 28.133-16.782 44.768v53.167c0 8.284 6.716 15 15 15h106.334c8.284 0 15-6.716 15-15v-53.167c0-16.559-6.042-32.423-16.788-44.76 7.11-10.164 11.299-22.516 11.299-35.834 0-34.561-28.117-62.678-62.678-62.678s-62.678 28.117-62.678 62.678zm100.845 118.761h-76.334v-38.167c0-9.275 3.296-18.041 9.319-24.977 8.642 4.501 18.449 7.061 28.848 7.061 10.397 0 20.202-2.56 28.843-7.059 5.969 6.898 9.324 15.744 9.324 24.975zm-38.167-151.439c18.019 0 32.678 14.659 32.678 32.678s-14.659 32.678-32.678 32.678-32.678-14.659-32.678-32.678 14.659-32.678 32.678-32.678z"/><path d="m248.083 219.284h-163.886c-8.284 0-15 6.716-15 15s6.716 15 15 15h163.886c8.284 0 15-6.716 15-15s-6.716-15-15-15z"/><path d="m248.083 321.258h-163.886c-8.284 0-15 6.716-15 15s6.716 15 15 15h163.886c8.284 0 15-6.716 15-15s-6.716-15-15-15z"/><path d="m248.083 381.304h-163.886c-8.284 0-15 6.716-15 15s6.716 15 15 15h163.886c8.284 0 15-6.716 15-15s-6.716-15-15-15z"/></g></svg>