<svg id="Capa_1" enable-background="new 0 0 512 512" height="512" viewBox="0 0 512 512" width="512" xmlns="http://www.w3.org/2000/svg"><g><path d="m411.032 211.667-107.914-65.127c.813-3.511 1.257-7.161 1.257-10.915 0-21.438-14.023-39.654-33.375-45.983v-28.309h95v-61.333h-30v31.333h-160v-31.333h-30v61.333h95v28.309c-19.352 6.329-33.375 24.544-33.375 45.983 0 3.754.444 7.405 1.257 10.915l-107.915 65.126h-100.967v300.334h512v-300.333zm-155.032-94.417c10.132 0 18.375 8.243 18.375 18.375s-8.243 18.375-18.375 18.375-18.375-8.243-18.375-18.375 8.243-18.375 18.375-18.375zm-31.593 54.962c8.483 7.335 19.524 11.788 31.593 11.788s23.11-4.453 31.593-11.788l65.377 39.455h-193.94zm257.593 309.788h-452v-240.333h452z"/><path d="m60.845 281.333h30v161h-30z"/><path d="m121.046 281.333h30v161h-30z"/><path d="m181.247 281.333h30v161h-30z"/><path d="m241.448 281.333h30v161h-30z"/><path d="m301.649 281.333h30v161h-30z"/><path d="m361.85 281.333h30v161h-30z"/><path d="m421.155 281.333h30v161h-30z"/></g></svg>