<svg id="_x31__x2C_5" enable-background="new 0 0 24 24" height="512" viewBox="0 0 24 24" width="512" xmlns="http://www.w3.org/2000/svg"><path d="m17.25 24h-10.5c-.414 0-.75-.336-.75-.75v-17c0-.965.785-1.75 1.75-1.75h8.5c.965 0 1.75.785 1.75 1.75v17c0 .414-.336.75-.75.75zm-9.75-1.5h9v-16.25c0-.138-.112-.25-.25-.25h-8.5c-.138 0-.25.112-.25.25z"/><path d="m15.25 6h-6.5c-.414 0-.75-.336-.75-.75v-1.5c0-.965.785-1.75 1.75-1.75h4.5c.965 0 1.75.785 1.75 1.75v1.5c0 .414-.336.75-.75.75zm-5.75-1.5h5v-.75c0-.138-.112-.25-.25-.25h-4.5c-.138 0-.25.112-.25.25z"/><path d="m12 3.5c-.414 0-.75-.336-.75-.75v-2c0-.414.336-.75.75-.75s.75.336.75.75v2c0 .414-.336.75-.75.75z"/><path d="m23.25 24h-22.5c-.414 0-.75-.336-.75-.75s.336-.75.75-.75h22.5c.414 0 .75.336.75.75s-.336.75-.75.75z"/><path d="m3 24c-.414 0-.75-.336-.75-.75v-3.745c0-.414.336-.75.75-.75s.75.336.75.75v3.745c0 .414-.336.75-.75.75z"/><path d="m3 20c-1.103 0-2-.897-2-2s.897-2 2-2 2 .897 2 2-.897 2-2 2zm0-2.5c-.276 0-.5.224-.5.5s.224.5.5.5.5-.224.5-.5-.224-.5-.5-.5z"/><path d="m21 24c-.414 0-.75-.336-.75-.75v-3.745c0-.414.336-.75.75-.75s.75.336.75.75v3.745c0 .414-.336.75-.75.75z"/><path d="m21 20c-1.103 0-2-.897-2-2s.897-2 2-2 2 .897 2 2-.897 2-2 2zm0-2.5c-.276 0-.5.224-.5.5s.224.5.5.5.5-.224.5-.5-.224-.5-.5-.5z"/><path d="m13.75 24h-3.5c-.414 0-.75-.336-.75-.75v-4.5c0-.414.336-.75.75-.75h3.5c.414 0 .75.336.75.75v4.5c0 .414-.336.75-.75.75zm-2.75-1.5h2v-3h-2z"/><path d="m13.25 15h-2.5c-.414 0-.75-.336-.75-.75s.336-.75.75-.75h2.5c.414 0 .75.336.75.75s-.336.75-.75.75z"/><path d="m13.25 9h-2.5c-.414 0-.75-.336-.75-.75s.336-.75.75-.75h2.5c.414 0 .75.336.75.75s-.336.75-.75.75z"/><path d="m13.25 12h-2.5c-.414 0-.75-.336-.75-.75s.336-.75.75-.75h2.5c.414 0 .75.336.75.75s-.336.75-.75.75z"/></svg>