<svg height="427pt" viewBox="-21 0 427 427.54133" width="427pt" xmlns="http://www.w3.org/2000/svg"><path d="m90.933594 427.542969c-8.832032 0-16-7.167969-16-16v-395.542969c0-8.832031 7.167968-16 16-16 8.832031 0 16 7.167969 16 16v395.542969c0 8.832031-7.167969 16-16 16zm0 0"/><path d="m90.933594 427.542969c-4.246094 0-8.34375-1.6875-11.328125-4.714844l-74.667969-74.839844c-6.230469-6.25-6.230469-16.382812.042969-22.632812 6.230469-6.230469 16.40625-6.230469 22.632812.042969l63.339844 63.488281 63.339844-63.488281c6.25-6.273438 16.425781-6.273438 22.632812-.042969 6.273438 6.25 6.273438 16.382812.042969 22.632812l-74.667969 74.839844c-3.027343 3.027344-7.125 4.714844-11.367187 4.714844zm0 0"/><path d="m330.933594 170.988281c-8.832032 0-16-7.167969-16-16v-122.988281h-21.335938c-8.832031 0-16-7.167969-16-16s7.167969-16 16-16h37.335938c8.832031 0 16 7.167969 16 16v138.988281c0 8.832031-7.167969 16-16 16zm0 0"/><path d="m346.933594 427.542969h-53.335938c-8.832031 0-16-7.167969-16-16s7.167969-16 16-16h53.335938c2.941406 0 5.332031-2.414063 5.332031-5.398438v-26.753906h-37.332031c-20.589844 0-37.335938-16.765625-37.335938-37.375v-32.085937c0-20.605469 16.746094-37.375 37.335938-37.375h32c20.585937 0 37.332031 16.769531 37.332031 37.375v96.214843c0 20.628907-16.746094 37.398438-37.332031 37.398438zm-32-138.988281c-2.945313 0-5.335938 2.410156-5.335938 5.375v32.085937c0 2.964844 2.390625 5.375 5.335938 5.375h37.332031v-37.460937c0-2.964844-2.390625-5.375-5.332031-5.375zm0 0"/><path d="m368.265625 170.988281h-74.667969c-8.832031 0-16-7.167969-16-16s7.167969-16 16-16h74.667969c8.832031 0 16 7.167969 16 16s-7.167969 16-16 16zm0 0"/></svg>