<?xml version="1.0" encoding="iso-8859-1"?>
<!-- Generator: Adobe Illustrator 19.0.0, SVG Export Plug-In . SVG Version: 6.00 Build 0)  -->
<svg version="1.1" id="Layer_1" xmlns="http://www.w3.org/2000/svg" xmlns:xlink="http://www.w3.org/1999/xlink" x="0px" y="0px"
	 viewBox="0 0 512.277 512.277" style="enable-background:new 0 0 512.277 512.277;" xml:space="preserve">
<g transform="translate(1 1)">
	<g>
		<g>
			<path d="M340.333,169.805c-5.12,0-8.533,3.413-8.533,8.533v17.067c0,5.12,3.413,8.533,8.533,8.533
				c5.12,0,8.533-3.413,8.533-8.533v-17.067C348.867,173.218,345.453,169.805,340.333,169.805z"/>
			<path d="M365.933,169.805c-5.12,0-8.533,3.413-8.533,8.533v17.067c0,5.12,3.413,8.533,8.533,8.533s8.533-3.413,8.533-8.533
				v-17.067C374.467,173.218,371.053,169.805,365.933,169.805z"/>
			<path d="M391.533,169.805c-5.12,0-8.533,3.413-8.533,8.533v17.067c0,5.12,3.413,8.533,8.533,8.533
				c5.12,0,8.533-3.413,8.533-8.533v-17.067C400.067,173.218,396.653,169.805,391.533,169.805z"/>
			<path d="M510.147,387.405c-2.56-11.093-10.24-20.48-20.48-25.6l-14.653-7.719l8.629-73.348h1.757c5.12,0,8.533-3.413,8.533-8.533
				v-51.2c0-5.12-3.413-8.533-8.533-8.533h-59.733v-59.733c0-5.12-3.413-8.533-8.533-8.533h-5.547l-37.12-29.696V83.646
				c19.681-3.86,34.133-20.878,34.133-41.841c0-23.893-18.773-42.667-42.667-42.667c-22.111,0-39.825,16.081-42.347,37.415
				L107.053,169.805H7.533c-5.12,0-8.533,3.413-8.533,8.533v51.2c0,1.707,0.853,3.413,1.707,5.12l17.067,25.6
				c1.707,1.707,4.267,3.413,6.827,3.413h42.667v32.996l-24.084,64.225c-0.766,1.096-1.262,2.426-1.437,3.939
				c-0.178,0.848-0.197,1.648-0.079,2.414v135.36c0,5.12,3.413,8.533,8.533,8.533h136.533c5.12,0,8.533-3.413,8.533-8.533V366.072
				c0-2.034-0.546-3.791-1.516-5.18l-24.084-64.225v-62.862L357.4,93.005v21.504l-37.12,29.696h-5.547
				c-5.12,0-8.533,3.413-8.533,8.533v59.733h-59.733c-5.12,0-8.533,3.413-8.533,8.533v51.2c0,5.12,3.413,8.533,8.533,8.533h9.354
				l8,74.907l-11.38,6.16c-10.24,5.12-17.92,14.507-21.333,25.6s-1.707,23.04,5.12,32.427l54.613,87.04
				c0.853,2.56,4.267,4.267,6.827,4.267h145.067c2.56,0,5.973-1.707,7.68-3.413l29.867-48.64c0.25-0.5,0.495-1.08,0.702-1.705
				l23.192-37.548C511,410.445,512.707,398.498,510.147,387.405z M394.093,311.458c-5.726-3.083-13.959-5.014-22.927-5.12
				c-8.642-0.214-18.031,1.279-26.566,5.12l-64.853,34.987l-6.738-64.853h193.618l-7.588,64.079L394.093,311.458z M365.933,16.205
				c14.507,0,25.6,11.093,25.6,25.6c0,14.507-11.093,25.6-25.6,25.6s-25.6-11.093-25.6-25.6
				C340.333,27.298,351.427,16.205,365.933,16.205z M16.067,226.978v-40.107H101.4v42.667v17.067H75.8H28.867L16.067,226.978z
				 M109.933,263.672c5.12,0,8.533-3.413,8.533-8.533v-17.067H152.6v51.2H84.333v-25.6H109.933z M178.2,494.072H58.733v-17.067
				H101.4c5.12,0,8.533-3.413,8.533-8.533s-3.413-8.533-8.533-8.533H58.733v-17.067h25.6c5.12,0,8.533-3.413,8.533-8.533
				s-3.413-8.533-8.533-8.533h-25.6v-51.2H178.2V494.072z M62.147,357.538l19.627-51.2h73.387l18.773,51.2H62.147z M158.573,221.005
				h-40.107v-37.547L324.973,56.312c4.267,10.24,11.947,18.773,21.333,23.893L158.573,221.005z M365.933,129.528l18.347,14.677
				h-36.693L365.933,129.528z M323.267,161.272H408.6v51.2h-85.333V161.272z M255,229.538h59.733h102.4h59.733v34.133H263.533H255
				V229.538z M302.787,494.072l-23.04-36.693l74.24-36.693c11.093-5.12,23.893-5.12,34.133,0l72.533,36.693l-22.187,36.693H302.787z
				 M490.52,410.445l-20.642,33.162L395.8,406.178c-15.36-7.68-32.427-7.68-48.64,0l-76.142,37.678l-21.138-33.412
				c-4.267-5.12-5.12-11.947-3.413-18.773c1.707-5.973,5.973-11.093,12.8-14.507l15.951-8.634c0.565-0.088,0.958-0.263,1.068-0.578
				l75.994-41.134c4.786-2.209,10.365-3.142,15.78-3.221c6.825,0.014,13.308,1.358,17.5,3.221l76.8,40.107
				c0.697,0.465,1.395,0.791,2.092,1.003l17.535,9.237c5.973,2.56,10.24,7.68,11.947,14.507
				C495.64,397.645,494.787,404.472,490.52,410.445z"/>
			<path d="M365.933,50.338c5.12,0,8.533-3.413,8.533-8.533s-3.413-8.533-8.533-8.533s-8.533,3.413-8.533,8.533
				S360.813,50.338,365.933,50.338z"/>
		</g>
	</g>
</g>
<g>
</g>
<g>
</g>
<g>
</g>
<g>
</g>
<g>
</g>
<g>
</g>
<g>
</g>
<g>
</g>
<g>
</g>
<g>
</g>
<g>
</g>
<g>
</g>
<g>
</g>
<g>
</g>
<g>
</g>
</svg>
