<?xml version="1.0" encoding="utf-8"?>
<!-- Generator: Adobe Illustrator 21.1.0, SVG Export Plug-In . SVG Version: 6.00 Build 0)  -->
<svg version="1.1" id="Capa_1" xmlns="http://www.w3.org/2000/svg" xmlns:xlink="http://www.w3.org/1999/xlink" x="0px" y="0px"
	 viewBox="0 0 465.2 92.4" style="enable-background:new 0 0 465.2 92.4;" xml:space="preserve">
<style type="text/css">
	.st0{fill:url(#SVGID_1_);}
	.st1{fill:#FFFFFF;}
</style>
<g>
	<linearGradient id="SVGID_1_" gradientUnits="userSpaceOnUse" x1="17.3919" y1="44.7915" x2="93.3566" y2="44.7915">
		<stop  offset="0" style="stop-color:#FF5155"/>
		<stop  offset="1" style="stop-color:#FF6047"/>
	</linearGradient>
	<path class="st0" d="M35.6,18.3L17.4,36.5v34.9H75l18.4-18.4V18.1L35.6,18.3z M79.6,45.6L68.8,56.4H30.9V43l11-11l37.7-0.2V45.6z"
		/>
	<g>
		<path class="st1" d="M131.8,59.6h-3.6c-3.9,0-6.9-1.1-8.9-3.3c-2.1-2.2-3.1-5.3-3.1-9.3V32.9c0-4,1.1-7.1,3.3-9.3
			c2.2-2.2,5.3-3.3,9.2-3.3h18.1c1,0,1.5,0.5,1.5,1.4v40.1c0,3.9-1.1,7-3.4,9.2c-2.2,2.2-5.3,3.3-9.3,3.3h-15.2
			c-0.9,0-1.4-0.4-1.4-1.3v-4.2c0-0.9,0.5-1.4,1.4-1.4h14c3.9,0,5.9-2,5.9-6v-6.2H140C138.6,58.1,135.9,59.6,131.8,59.6z
			 M140.3,45.8V28c0-0.5-0.3-0.8-0.9-0.8h-9.6c-3.8,0-5.7,2-5.7,6v13.4c0,4,1.9,6,5.7,6h3.9C138.1,52.6,140.3,50.4,140.3,45.8z"/>
		<path class="st1" d="M187.8,61.6h-17.5c-4,0-7.1-1.1-9.3-3.3c-2.2-2.2-3.3-5.3-3.3-9.2V32.9c0-4,1.1-7.1,3.3-9.3
			c2.2-2.2,5.3-3.3,9.3-3.3h6.6c4,0,7.1,1.1,9.3,3.3c2.2,2.2,3.3,5.3,3.3,9.3v10.3c0,1-0.5,1.5-1.5,1.5h-21.7
			c-0.6,0-0.9,0.3-0.9,0.8v3.5c0,3.9,2,5.9,5.9,5.9h16.4c1,0,1.5,0.5,1.5,1.5v4C189.2,61.2,188.7,61.6,187.8,61.6z M166.4,39.1h14.5
			c0.5,0,0.8-0.3,0.8-0.8v-5.2c0-2.1-0.5-3.6-1.4-4.5c-0.9-0.9-2.4-1.4-4.5-1.4h-4.5c-2.1,0-3.5,0.5-4.5,1.4
			c-0.9,0.9-1.4,2.4-1.4,4.5v5.2C165.6,38.8,165.9,39.1,166.4,39.1z"/>
		<path class="st1" d="M205.1,61.6H200c-0.9,0-1.4-0.5-1.4-1.4V21.7c0-0.9,0.5-1.4,1.4-1.4h5.1c0.9,0,1.4,0.5,1.4,1.4v2.9h0.3
			c1.3-2.9,4-4.3,8.2-4.3h3.6c3.9,0,7,1.1,9.1,3.2c2.1,2.2,3.2,5.3,3.2,9.3v27.4c0,0.9-0.5,1.4-1.5,1.4h-5.1c-0.9,0-1.4-0.5-1.4-1.4
			v-27c0-4-2-6-5.9-6h-3.8c-4.4,0-6.6,2.3-6.6,6.9v26.2C206.5,61.2,206,61.6,205.1,61.6z"/>
		<path class="st1" d="M265.8,56.1v4.2c0,0.9-0.5,1.3-1.5,1.3h-11.9c-4,0-7.1-1.1-9.3-3.3c-2.2-2.2-3.3-5.3-3.3-9.2V32.9
			c0-4,1.1-7.1,3.3-9.3c2.2-2.2,5.3-3.3,9.3-3.3h11.9c1,0,1.5,0.5,1.5,1.4v4.2c0,0.9-0.5,1.3-1.5,1.3h-10.8c-3.9,0-5.8,2-5.8,6v15.5
			c0,4,1.9,6,5.8,6h10.8C265.3,54.7,265.8,55.2,265.8,56.1z"/>
		<path class="st1" d="M292.5,61.6h-7.1c-4,0-7.1-1.1-9.3-3.3c-2.2-2.2-3.3-5.3-3.3-9.2V32.9c0-4,1.1-7.1,3.3-9.3
			c2.2-2.2,5.3-3.3,9.3-3.3h7.1c3.9,0,7,1.1,9.3,3.3c2.2,2.2,3.4,5.3,3.4,9.3v16.2c0,3.9-1.1,7-3.4,9.2
			C299.5,60.5,296.4,61.6,292.5,61.6z M286.5,54.7h4.9c3.9,0,5.8-2,5.8-5.9V33.1c0-3.9-1.9-5.9-5.8-5.9h-4.9c-2.1,0-3.5,0.5-4.5,1.4
			c-0.9,0.9-1.4,2.4-1.4,4.5v15.7c0,2.1,0.5,3.6,1.4,4.5C282.9,54.3,284.4,54.7,286.5,54.7z"/>
		<path class="st1" d="M321.1,61.6H316c-0.9,0-1.4-0.5-1.4-1.4V21.7c0-0.9,0.5-1.4,1.4-1.4h5.1c0.9,0,1.4,0.5,1.4,1.4v2.9h0.3
			c1.6-2.9,4.4-4.3,8.6-4.3h2.7c4.7,0,8,1.8,10,5.3c0.9-1.7,2.2-3,4-4c1.8-0.9,3.7-1.4,5.7-1.4h2.6c3.9,0,7,1.1,9,3.3
			c2.1,2.2,3.1,5.3,3.1,9.3v27.4c0,0.9-0.5,1.4-1.4,1.4H362c-0.9,0-1.4-0.5-1.4-1.4v-27c0-4-1.9-6-5.8-6h-2.3c-4.5,0-6.7,2.3-6.7,7
			v26c0,0.9-0.5,1.4-1.5,1.4h-5.1c-0.9,0-1.4-0.5-1.4-1.4v-27c0-4-1.9-6-5.8-6h-2.8c-4.4,0-6.6,2.3-6.6,6.9v26.2
			C322.4,61.2,322,61.6,321.1,61.6z"/>
		<path class="st1" d="M407.7,61.6h-17.5c-4,0-7.1-1.1-9.3-3.3c-2.2-2.2-3.3-5.3-3.3-9.2V32.9c0-4,1.1-7.1,3.3-9.3
			c2.2-2.2,5.3-3.3,9.3-3.3h6.6c4,0,7.1,1.1,9.3,3.3c2.2,2.2,3.3,5.3,3.3,9.3v10.3c0,1-0.5,1.5-1.5,1.5h-21.7
			c-0.6,0-0.9,0.3-0.9,0.8v3.5c0,3.9,2,5.9,5.9,5.9h16.4c1,0,1.5,0.5,1.5,1.5v4C409.2,61.2,408.7,61.6,407.7,61.6z M386.3,39.1h14.5
			c0.5,0,0.8-0.3,0.8-0.8v-5.2c0-2.1-0.5-3.6-1.4-4.5c-0.9-0.9-2.4-1.4-4.5-1.4h-4.5c-2.1,0-3.5,0.5-4.5,1.4
			c-0.9,0.9-1.4,2.4-1.4,4.5v5.2C385.5,38.8,385.8,39.1,386.3,39.1z"/>
		<path class="st1" d="M422.4,61.6h-6.2c-1.2,0-1.5-0.5-0.9-1.4l10.8-19.7l-10.5-18.9c-0.6-0.9-0.4-1.4,0.7-1.4h6.2
			c1,0,1.7,0.5,2.1,1.4l6.6,13.9h0.3l6.2-13.9c0.4-0.9,1.1-1.4,2-1.4h6.2c1.1,0,1.4,0.5,0.8,1.4l-10.2,18.8l11,19.8
			c0.5,0.9,0.3,1.4-0.7,1.4h-6.4c-0.9,0-1.6-0.5-1.9-1.4l-6.9-14.3h-0.3l-6.8,14.3C424.1,61.2,423.4,61.6,422.4,61.6z"/>
	</g>
</g>
</svg>
